# xmcd
#
# Track frame offsets:
#       150
#       16239
#       29833
#       41995
#       65283
#       78949
#       94831
#
# Disc length: 1438 seconds
#
# Revision: 0
# Processed by: cddbd v1.5PL3 Copyright (c) Steve Scherf et al.
# Submitted via: CD-DA_X-Tractor v0.23
#
DISCID=55059c07
DTITLE=Brenda Lee - At Her Best Vol.1
DYEAR=1900
DGENRE=
TTITLE0=Coming On Strong
TTITLE1=You Don't Have To Say You Love Me
TTITLE2=How Much Love
TTITLE3=Medley
TTITLE4=Your Mama Don't Dance
TTITLE5=You're The One That I Want
TTITLE6=Medley
EXTD=
EXTT0=
EXTT1=
EXTT2=
EXTT3=
EXTT4=
EXTT5=
EXTT6=
PLAYORDER=
